<svg width="161" height="182" viewBox="0 0 161 182" fill="none" xmlns="http://www.w3.org/2000/svg">
<g clip-path="url(#clip0_3857_40176)">
<mask id="mask0_3857_40176" style="mask-type:alpha" maskUnits="userSpaceOnUse" x="0" y="-2" width="161" height="184">
<rect y="-2" width="161" height="184" fill="#D9D9D9"/>
</mask>
<g mask="url(#mask0_3857_40176)">
<path d="M152.978 141.432C152.508 143.623 151.883 145.758 151.106 147.792C143.899 166.579 123.056 178.007 105.365 184.719C83.1063 193.179 58.4031 200.073 43.6779 218.802C35.0888 229.732 31.0257 243.451 24.5543 255.742C18.0935 268.046 7.62555 279.889 -6.20186 281.31C-22.4287 282.973 -32.9969 271.142 -43.1321 260.589C-64.7657 238.039 -91.9432 224.236 -115.042 203.83C-138.172 183.387 -159.734 151.651 -140.563 121.034C-132.139 107.597 -117.806 99.2215 -109.15 86.0268C-100.886 73.4061 -98.9828 57.4727 -95.8315 42.9989C-91.4057 22.6004 -82.4787 4.69322 -64.526 -6.93613C-48.2494 -17.468 -25.7746 -19.2411 -9.56529 -8.58356C5.41761 1.2739 15.0493 15.1502 31.5009 23.7936C50.1206 33.5636 70.083 34.6338 89.0876 41.9685C112.987 51.1978 136.344 70.1697 146.696 93.9215C152.548 107.331 156.302 126.108 153 141.434L152.978 141.432Z" fill="#65CCB2"/>
</g>
</g>
<defs>
<clipPath id="clip0_3857_40176">
<rect width="161" height="182" fill="white"/>
</clipPath>
</defs>
</svg>
