<svg width="150" height="343" viewBox="0 0 150 343" fill="none" xmlns="http://www.w3.org/2000/svg">
<g clip-path="url(#clip0_3857_40173)">
<mask id="mask0_3857_40173" style="mask-type:alpha" maskUnits="userSpaceOnUse" x="-1" y="-38" width="382" height="382">
<g clip-path="url(#clip1_3857_40173)">
<path d="M14.9387 49.2971L13.1346 49.8685L17.4279 63.422L3.87444 67.7152L4.4459 69.5193L17.9994 65.226L26.584 92.3272L13.0306 96.6204L13.602 98.4245L27.1555 94.1312L35.7402 121.232L22.1867 125.526L22.7582 127.33L36.3116 123.036L44.8963 150.138L31.3429 154.431L31.9143 156.235L45.4678 151.942L54.0525 179.043L40.499 183.336L41.0704 185.14L54.6239 180.847L63.2086 207.948L49.6551 212.241L50.2266 214.045L63.7801 209.752L72.3647 236.853L58.8113 241.146L59.3827 242.95L72.9362 238.657L81.5209 265.758L67.9674 270.052L68.5389 271.856L82.0923 267.562L90.677 294.663L77.1236 298.957L77.695 300.761L91.2485 296.468L99.8496 323.621L86.2962 327.914L86.8676 329.718L100.421 325.425L104.714 338.978L106.518 338.407L102.225 324.853L129.332 316.267L133.625 329.82L135.429 329.249L131.136 315.695L158.243 307.109L162.536 320.662L164.34 320.091L160.047 306.537L187.154 297.951L191.447 311.504L193.251 310.933L188.958 297.379L216.065 288.793L220.358 302.346L222.162 301.775L217.869 288.221L244.976 279.635L249.269 293.188L251.073 292.617L246.78 279.063L273.887 270.477L278.18 284.03L279.984 283.459L275.691 269.905L302.798 261.319L307.091 274.872L308.895 274.301L304.602 260.748L331.709 252.161L336.002 265.714L337.806 265.143L333.513 251.59L360.62 243.003L364.913 256.556L366.717 255.985L362.424 242.432L375.977 238.138L375.406 236.334L361.852 240.628L353.266 213.521L366.819 209.227L366.248 207.423L352.694 211.717L344.11 184.615L357.663 180.322L357.092 178.518L343.538 182.811L334.954 155.71L348.507 151.417L347.936 149.613L334.382 153.906L325.797 126.805L339.351 122.512L338.779 120.708L325.226 125.001L316.641 97.8999L330.195 93.6066L329.623 91.8026L316.07 96.0958L307.485 68.9947L321.039 64.7014L320.467 62.8974L306.914 67.1906L298.329 40.0895L311.883 35.7962L311.311 33.9922L297.758 38.2854L289.173 11.1843L302.726 6.89105L302.155 5.087L288.601 9.38025L280.017 -17.7209L293.57 -22.0142L292.999 -23.8182L279.445 -19.5249L275.152 -33.0784L273.348 -32.507L277.641 -18.9535L250.534 -10.367L246.241 -23.9204L244.437 -23.349L248.73 -9.79552L221.623 -1.209L217.33 -14.7625L215.526 -14.191L219.819 -0.637545L192.712 7.94897L188.419 -5.6045L186.615 -5.03304L190.908 8.52043L163.801 17.1069L159.508 3.55347L157.704 4.12493L161.997 17.6784L134.89 26.2649L130.597 12.7114L128.793 13.2829L133.086 26.8364L105.98 35.4229L101.686 21.8694L99.8822 22.4409L104.175 35.9943L77.0685 44.5809L72.7753 31.0274L70.9712 31.5988L75.2645 45.1523L48.1576 53.7388L43.8643 40.1854L42.0603 40.7568L46.3535 54.3103L19.2466 62.8968L14.9533 49.3433L14.9387 49.2971ZM28.3899 91.7615L19.8052 64.6604L46.9122 56.0739L55.4968 83.175L28.3899 91.7615ZM57.3009 82.6036L48.7162 55.5024L75.8231 46.9159L84.4078 74.017L57.3009 82.6036ZM86.2119 73.4456L77.6272 46.3444L104.734 37.7579L113.319 64.8591L86.2119 73.4456ZM115.123 64.2876L106.538 37.1865L133.645 28.5999L142.23 55.7011L115.123 64.2876ZM37.5479 120.672L28.9632 93.5713L56.0701 84.9848L64.6548 112.086L37.5479 120.672ZM66.4589 111.515L57.8742 84.4134L84.9811 75.8268L93.5658 102.928L66.4589 111.515ZM95.3698 102.357L86.7851 75.2554L113.892 66.6689L122.477 93.77L95.3698 102.357ZM124.281 93.1986L115.696 66.0974L142.803 57.5109L151.388 84.6121L124.281 93.1986ZM46.7059 149.583L38.1212 122.482L65.2281 113.896L73.8128 140.997L46.7059 149.583ZM75.6168 140.425L67.0321 113.324L94.1391 104.738L102.724 131.839L75.6168 140.425ZM104.528 131.268L95.9431 104.166L123.05 95.5799L131.635 122.681L104.528 131.268ZM133.439 122.11L124.854 95.0084L151.961 86.4219L160.546 113.523L133.439 122.11ZM55.8638 178.494L47.2791 151.393L74.3861 142.807L82.9708 169.908L55.8638 178.494ZM84.7748 169.336L76.1901 142.235L103.297 133.649L111.882 160.75L84.7748 169.336ZM113.686 160.178L105.101 133.077L132.208 124.491L140.793 151.592L113.686 160.178ZM142.597 151.021L134.012 123.919L161.119 115.333L169.704 142.434L142.597 151.021ZM65.0218 207.405L56.4371 180.304L83.544 171.718L92.1287 198.819L65.0218 207.405ZM93.9328 198.247L85.3481 171.146L112.455 162.56L121.04 189.661L93.9328 198.247ZM122.844 189.089L114.259 161.988L141.366 153.402L149.951 180.503L122.844 189.089ZM151.755 179.931L143.17 152.83L170.277 144.244L178.862 171.345L151.755 179.931ZM74.1798 236.316L65.5951 209.215L92.702 200.629L101.287 227.73L74.1798 236.316ZM103.091 227.158L94.5061 200.057L121.613 191.471L130.198 218.572L103.091 227.158ZM132.002 218L123.417 190.899L150.524 182.313L159.109 209.414L132.002 218ZM160.913 208.842L152.328 181.741L179.435 173.155L188.02 200.256L160.913 208.842ZM83.3377 265.227L74.7531 238.126L101.86 229.54L110.445 256.641L83.3377 265.227ZM112.249 256.069L103.664 228.968L130.771 220.382L139.356 247.483L112.249 256.069ZM141.16 246.911L132.575 219.81L159.682 211.224L168.267 238.325L141.16 246.911ZM170.071 237.753L161.486 210.652L188.593 202.066L197.178 229.167L170.071 237.753ZM92.4957 294.138L83.911 267.037L111.018 258.451L119.603 285.552L92.4957 294.138ZM121.407 284.98L112.822 257.879L139.929 249.293L148.514 276.394L121.407 284.98ZM150.318 275.822L141.733 248.721L168.84 240.135L177.425 267.236L150.318 275.822ZM179.229 266.664L170.644 239.563L197.751 230.977L206.336 258.078L179.229 266.664ZM101.654 323.049L93.0672 295.942L120.174 287.356L128.761 314.463L101.654 323.049ZM130.565 313.891L121.978 286.784L149.085 278.198L157.672 305.305L130.565 313.891ZM159.476 304.733L150.889 277.626L177.996 269.04L186.583 296.147L159.476 304.733ZM188.387 295.575L179.8 268.468L206.907 259.882L215.494 286.989L188.387 295.575ZM351.462 214.092L360.048 241.199L332.941 249.786L324.355 222.679L351.462 214.092ZM322.551 223.25L331.137 250.357L304.03 258.943L295.444 231.837L322.551 223.25ZM293.64 232.408L302.226 259.515L275.119 268.101L266.533 240.995L293.64 232.408ZM264.729 241.566L273.315 268.673L246.209 277.259L237.622 250.152L264.729 241.566ZM235.818 250.724L244.404 277.831L217.298 286.417L208.711 259.31L235.818 250.724ZM342.304 185.181L350.889 212.282L323.782 220.869L315.197 193.768L342.304 185.181ZM313.393 194.339L321.978 221.44L294.871 230.027L286.286 202.926L313.393 194.339ZM284.482 203.497L293.067 230.598L265.96 239.185L257.375 212.084L284.482 203.497ZM255.571 212.655L264.156 239.756L237.049 248.343L228.464 221.242L255.571 212.655ZM226.66 221.813L235.245 248.914L208.138 257.501L199.553 230.399L226.66 221.813ZM333.146 156.27L341.731 183.371L314.624 191.958L306.039 164.857L333.146 156.27ZM304.235 165.428L312.82 192.529L285.713 201.116L277.128 174.015L304.235 165.428ZM275.324 174.586L283.909 201.687L256.802 210.274L248.217 183.173L275.324 174.586ZM246.413 183.744L254.998 210.845L227.891 219.432L219.306 192.331L246.413 183.744ZM217.502 192.902L226.087 220.003L198.98 228.59L190.395 201.489L217.502 192.902ZM323.988 127.359L332.573 154.46L305.466 163.047L296.881 135.946L323.988 127.359ZM295.077 136.517L303.662 163.618L276.555 172.205L267.97 145.104L295.077 136.517ZM266.166 145.675L274.751 172.776L247.644 181.363L239.059 154.262L266.166 145.675ZM237.255 154.833L245.84 181.934L218.733 190.521L210.148 163.42L237.255 154.833ZM208.344 163.991L216.929 191.092L189.822 199.679L181.237 172.578L208.344 163.991ZM314.83 98.4482L323.415 125.549L296.308 134.136L287.723 107.035L314.83 98.4482ZM285.919 107.606L294.504 134.707L267.397 143.294L258.812 116.193L285.919 107.606ZM257.008 116.764L265.593 143.865L238.486 152.452L229.901 125.351L257.008 116.764ZM228.097 125.922L236.682 153.023L209.575 161.61L200.99 134.509L228.097 125.922ZM199.186 135.08L207.771 162.181L180.664 170.768L172.079 143.667L199.186 135.08ZM305.672 69.5372L314.257 96.6383L287.15 105.225L278.565 78.1237L305.672 69.5372ZM276.761 78.6952L285.346 105.796L258.239 114.383L249.654 87.2817L276.761 78.6952ZM247.85 87.8532L256.435 114.954L229.328 123.541L220.743 96.4397L247.85 87.8532ZM218.939 97.0111L227.524 124.112L200.417 132.699L191.832 105.598L218.939 97.0111ZM190.028 106.169L198.613 133.27L171.506 141.857L162.921 114.756L190.028 106.169ZM296.514 40.6262L305.099 67.7274L277.992 76.3139L269.407 49.2128L296.514 40.6262ZM267.603 49.7842L276.188 76.8854L249.081 85.4719L240.496 58.3707L267.603 49.7842ZM238.692 58.9422L247.277 86.0433L220.17 94.6298L211.585 67.5287L238.692 58.9422ZM209.781 68.1002L218.366 95.2013L191.259 103.788L182.674 76.6867L209.781 68.1002ZM180.87 77.2581L189.455 104.359L162.348 112.946L153.763 85.8446L180.87 77.2581ZM287.356 11.7153L295.941 38.8164L268.834 47.4029L260.249 20.3018L287.356 11.7153ZM258.445 20.8732L267.03 47.9744L239.923 56.5609L231.338 29.4598L258.445 20.8732ZM229.534 30.0312L238.119 57.1324L211.012 65.7189L202.427 38.6177L229.534 30.0312ZM200.623 39.1892L209.208 66.2903L182.101 74.8768L173.516 47.7757L200.623 39.1892ZM171.712 48.3471L180.297 75.4483L153.19 84.0348L144.605 56.9337L171.712 48.3471ZM278.198 -17.1957L286.783 9.90546L259.676 18.492L251.091 -8.60918L278.198 -17.1957ZM249.287 -8.03773L257.872 19.0634L230.765 27.6499L222.18 0.548792L249.287 -8.03773ZM220.376 1.12025L228.961 28.2214L201.854 36.8079L193.269 9.70676L220.376 1.12025ZM191.465 10.2782L200.05 37.3794L172.943 45.9659L164.358 18.8647L191.465 10.2782ZM162.554 19.4362L171.139 46.5373L144.032 55.1239L135.447 28.0227L162.554 19.4362Z" fill="#BFC2C1"/>
</g>
</mask>
<g mask="url(#mask0_3857_40173)">
<rect x="-105" width="255" height="343" fill="#D9D9D9"/>
</g>
</g>
<defs>
<clipPath id="clip0_3857_40173">
<rect width="150" height="343" fill="white"/>
</clipPath>
<clipPath id="clip1_3857_40173">
<rect width="303.268" height="303.268" fill="white" transform="translate(91.1609 343.271) rotate(-107.576)"/>
</clipPath>
</defs>
</svg>
