<?xml version="1.0" encoding="UTF-8"?>
<svg width="32px" height="32px" viewBox="0 0 32 32" version="1.1" xmlns="http://www.w3.org/2000/svg" xmlns:xlink="http://www.w3.org/1999/xlink">
    <!-- Generator: Sketch 53.1 (72631) - https://sketchapp.com -->
    <title>fb</title>
    <desc>Created with Sketch.</desc>
    <g id="Page-1" stroke="none" stroke-width="1" fill="none" fill-rule="evenodd">
        <g id="fb">
            <g id="facebook-white-317660ba454c621caffbd856b7d97e68">
                <path d="M26.628,4 L5.372,4 C4.617,4 4,4.617 4,5.372 L4,26.629 C4,27.383 4.617,28 5.372,28 L26.629,28 C27.383,28 28,27.383 28,26.628 L28,5.372 C28,4.617 27.383,4 26.628,4 Z M24.371,17.462 L21.074,17.462 L21.074,26.285 L17.715,26.285 L17.715,17.462 L15.382,17.462 L15.382,14.285 L17.715,14.285 C17.715,14.285 17.715,12.983 17.715,11.572 C17.715,9.44 19.093,7.482 22.269,7.482 C23.555,7.482 24.505,7.605 24.505,7.605 L24.43,10.572 C24.43,10.572 23.46,10.563 22.402,10.563 C21.257,10.563 21.073,11.091 21.073,11.967 C21.073,12.075 21.073,12.113 21.073,12.115 C21.073,12.36 21.073,12.957 21.073,14.286 L24.521,14.286 L24.371,17.462 Z" id="Shape" fill="#FFFFFF" fill-rule="nonzero"></path>
                <rect id="Rectangle" x="0" y="0" width="32" height="32"></rect>
            </g>
        </g>
    </g>
</svg>