<?xml version="1.0" encoding="UTF-8"?>
<svg width="32px" height="32px" viewBox="0 0 32 32" version="1.1" xmlns="http://www.w3.org/2000/svg" xmlns:xlink="http://www.w3.org/1999/xlink">
    <!-- Generator: Sketch 53.1 (72631) - https://sketchapp.com -->
    <title>insta</title>
    <desc>Created with Sketch.</desc>
    <g id="Page-1" stroke="none" stroke-width="1" fill="none" fill-rule="evenodd">
        <g id="insta">
            <g id="Group">
                <path d="M15.9962381,4 C12.7382381,4 12.3297143,4.01380952 11.0501905,4.07219048 C9.77333333,4.13042857 8.90128571,4.3332381 8.1382381,4.62980952 C7.34938095,4.93633333 6.68038095,5.34652381 6.01342857,6.01342857 C5.34652381,6.68038095 4.93633333,7.34938095 4.62980952,8.1382381 C4.3332381,8.90128571 4.13042857,9.77333333 4.07219048,11.0501905 C4.01380952,12.3297143 4,12.7382381 4,15.9962381 C4,19.2541905 4.01380952,19.6627143 4.07219048,20.9422381 C4.13042857,22.2190952 4.3332381,23.0911429 4.62980952,23.8541905 C4.93633333,24.6430476 5.34652381,25.3120476 6.01342857,25.979 C6.68038095,26.6459048 7.34938095,27.0560952 8.1382381,27.3626667 C8.90128571,27.6591905 9.77333333,27.862 11.0501905,27.9202381 C12.3297143,27.978619 12.7382381,27.9924286 15.9962381,27.9924286 C19.2541905,27.9924286 19.6627143,27.978619 20.9422381,27.9202381 C22.2190952,27.862 23.0911429,27.6591905 23.8541905,27.3626667 C24.6430476,27.0560952 25.3120476,26.6459048 25.979,25.979 C26.6459048,25.3120476 27.0560952,24.6430476 27.3626667,23.8541905 C27.6591905,23.0911429 27.862,22.2190952 27.9202381,20.9422381 C27.978619,19.6627143 27.9924286,19.2541905 27.9924286,15.9962381 C27.9924286,12.7382381 27.978619,12.3297143 27.9202381,11.0501905 C27.862,9.77333333 27.6591905,8.90128571 27.3626667,8.1382381 C27.0560952,7.34938095 26.6459048,6.68038095 25.979,6.01342857 C25.3120476,5.34652381 24.6430476,4.93633333 23.8541905,4.62980952 C23.0911429,4.3332381 22.2190952,4.13042857 20.9422381,4.07219048 C19.6627143,4.01380952 19.2541905,4 15.9962381,4 Z M15.9962381,6.16147619 C19.1993333,6.16147619 19.5787619,6.17371429 20.8437143,6.23142857 C22.0133333,6.2847619 22.6485238,6.48019048 23.0712381,6.64447619 C23.6311905,6.86209524 24.0308095,7.12204762 24.4505714,7.54185714 C24.870381,7.96161905 25.1303333,8.3612381 25.3479524,8.92119048 C25.5122381,9.34390476 25.7076667,9.97909524 25.761,11.1487143 C25.8187143,12.4136667 25.8309524,12.7930952 25.8309524,15.9962381 C25.8309524,19.1993333 25.8187143,19.5787619 25.761,20.8437143 C25.7076667,22.0133333 25.5122381,22.6485238 25.3479524,23.0712381 C25.1303333,23.6311905 24.870381,24.0308095 24.4505714,24.4505714 C24.0308095,24.870381 23.6311905,25.1303333 23.0712381,25.3479524 C22.6485238,25.5122381 22.0133333,25.7076667 20.8437143,25.761 C19.5789524,25.8187143 19.1995714,25.8309524 15.9962381,25.8309524 C12.7928571,25.8309524 12.4135238,25.8187143 11.1487143,25.761 C9.97909524,25.7076667 9.34390476,25.5122381 8.92119048,25.3479524 C8.3612381,25.1303333 7.96161905,24.870381 7.54185714,24.4505714 C7.12209524,24.0308095 6.86209524,23.6311905 6.64447619,23.0712381 C6.48019048,22.6485238 6.2847619,22.0133333 6.23142857,20.8437143 C6.17371429,19.5787619 6.16147619,19.1993333 6.16147619,15.9962381 C6.16147619,12.7930952 6.17371429,12.4136667 6.23142857,11.1487143 C6.2847619,9.97909524 6.48019048,9.34390476 6.64447619,8.92119048 C6.86209524,8.3612381 7.12204762,7.96161905 7.54185714,7.54185714 C7.96161905,7.12204762 8.3612381,6.86209524 8.92119048,6.64447619 C9.34390476,6.48019048 9.97909524,6.2847619 11.1487143,6.23142857 C12.4136667,6.17371429 12.7930952,6.16147619 15.9962381,6.16147619 L15.9962381,6.16147619 Z" id="Fill-1" fill="#FFFFFF"></path>
                <path d="M15.9962381,19.9949524 C13.7877619,19.9949524 11.9974762,18.2046667 11.9974762,15.9962381 C11.9974762,13.7877619 13.7877619,11.9974762 15.9962381,11.9974762 C18.2046667,11.9974762 19.9949524,13.7877619 19.9949524,15.9962381 C19.9949524,18.2046667 18.2046667,19.9949524 15.9962381,19.9949524 Z M15.9962381,9.836 C12.594,9.836 9.836,12.594 9.836,15.9962381 C9.836,19.3984286 12.594,22.1564286 15.9962381,22.1564286 C19.3984286,22.1564286 22.1564286,19.3984286 22.1564286,15.9962381 C22.1564286,12.594 19.3984286,9.836 15.9962381,9.836 L15.9962381,9.836 Z" id="Fill-4" fill="#FFFFFF"></path>
                <path d="M23.839381,9.59261905 C23.839381,10.3876667 23.1948571,11.0321429 22.3998095,11.0321429 C21.6048095,11.0321429 20.9602857,10.3876667 20.9602857,9.59261905 C20.9602857,8.79757143 21.6048095,8.15304762 22.3998095,8.15304762 C23.1948571,8.15304762 23.839381,8.79757143 23.839381,9.59261905" id="Fill-5" fill="#FFFFFF"></path>
                <rect id="Rectangle" x="0" y="0" width="32" height="32"></rect>
            </g>
        </g>
    </g>
</svg>