<?xml version="1.0" encoding="UTF-8"?>
<svg width="32px" height="32px" viewBox="0 0 32 32" version="1.1" xmlns="http://www.w3.org/2000/svg" xmlns:xlink="http://www.w3.org/1999/xlink">
    <!-- Generator: Sketch 53.1 (72631) - https://sketchapp.com -->
    <title>lin</title>
    <desc>Created with Sketch.</desc>
    <g id="Page-1" stroke="none" stroke-width="1" fill="none" fill-rule="evenodd">
        <g id="lin">
            <g id="Group">
                <path d="M24.4519014,24.4506667 L20.8924692,24.4506667 L20.8924692,18.8806667 C20.8924692,17.5526667 20.8698019,15.844 19.0430845,15.844 C17.1903664,15.844 16.9076919,17.2913333 16.9076919,18.786 L16.9076919,24.4506667 L13.3522598,24.4506667 L13.3522598,12.9973333 L16.7643546,12.9973333 L16.7643546,14.5633333 L16.8136893,14.5633333 C17.2883691,13.6626667 18.4497347,12.7133333 20.1811161,12.7133333 C23.7858829,12.7133333 24.4519014,15.0846667 24.4519014,18.1693333 L24.4519014,24.4506667 Z M9.33881497,11.4326667 C8.19544987,11.4326667 7.27342426,10.508 7.27342426,9.368 C7.27342426,8.22866667 8.19544987,7.304 9.33881497,7.304 C10.4775133,7.304 11.4015389,8.22866667 11.4015389,9.368 C11.4015389,10.508 10.4775133,11.4326667 9.33881497,11.4326667 Z M7.55609878,24.4506667 L11.1195311,24.4506667 L11.1195311,12.9973333 L7.55609878,12.9973333 L7.55609878,24.4506667 Z M26.2246174,4 L5.77004917,4 C4.79335537,4 4,4.77466667 4,5.73066667 L4,26.268 C4,27.224 4.79335537,28 5.77004917,28 L26.2246174,28 C27.2033112,28 28,27.224 28,26.268 L28,5.73066667 C28,4.77466667 27.2033112,4 26.2246174,4 L26.2246174,4 Z" id="Fill-4" fill="#FFFFFF"></path>
                <rect id="Rectangle" x="0" y="0" width="32" height="32"></rect>
            </g>
        </g>
    </g>
</svg>