<?xml version="1.0" encoding="utf-8"?>
<!-- Generator: Adobe Illustrator 26.4.1, SVG Export Plug-In . SVG Version: 6.00 Build 0)  -->
<svg version="1.1" id="Layer_1" xmlns="http://www.w3.org/2000/svg" xmlns:xlink="http://www.w3.org/1999/xlink" x="0px" y="0px"
	 viewBox="0 0 32 32" style="enable-background:new 0 0 32 32;" xml:space="preserve">
<style type="text/css">
	.st0{fill:none;}
	.st1{fill:#FFFFFF;}
</style>
<g id="Page-1">
	<g id="lin">
		<g id="Group">
			<rect id="Rectangle" class="st0" width="32" height="32"/>
			<path class="st1" d="M26.4,5.6c-1-1-2.4-1.6-3.9-1.6H16H9.5C8,4,6.6,4.6,5.6,5.6C4.6,6.6,4,8,4,9.5V16v6.5c0,1.5,0.6,2.9,1.6,3.9
				S8,28,9.5,28H16h6.5c1.5,0,2.9-0.6,3.9-1.6S28,24,28,22.5h0V16V9.5C28,8,27.4,6.6,26.4,5.6z M23.5,14.4c-1.5,0-3-0.5-4.1-1.3v6
				c0,3-2.4,5.5-5.5,5.5c-1.1,0-2.2-0.3-3-0.9c-1.5-1-2.4-2.6-2.4-4.5c0-3,2.4-5.5,5.5-5.5c0.2,0,0.5,0,0.7,0.1v0.7v2.4
				c-0.2-0.1-0.5-0.1-0.8-0.1c-1.4,0-2.5,1.1-2.5,2.5c0,1,0.6,1.8,1.4,2.2c0.3,0.2,0.7,0.3,1.1,0.3c1.4,0,2.5-1.1,2.5-2.5V7.3h3v0.4
				c0,0.1,0,0.2,0,0.3c0.2,1.2,0.9,2.2,1.9,2.8c0.7,0.4,1.4,0.6,2.2,0.6V14.4z"/>
		</g>
	</g>
</g>
</svg>
