<svg width="445" height="262" viewBox="0 0 445 262" fill="none" xmlns="http://www.w3.org/2000/svg">
<g clip-path="url(#clip0_4591_42110)">
<mask id="mask0_4591_42110" style="mask-type:alpha" maskUnits="userSpaceOnUse" x="-13" y="-20" width="458" height="282">
<rect x="-13" y="-20" width="458" height="282" fill="#D9D9D9"/>
</mask>
<g mask="url(#mask0_4591_42110)">
<path d="M557 -97.0001V200.848C540.594 134.847 369.193 240.176 244.535 183.604C137.924 155 146.944 -110.37 0 -151L557 -97.0001Z" fill="#75D1BA"/>
<path d="M467 -151V146.848C451.269 80.8467 286.918 186.176 167.389 129.604C85.3502 90.7753 78.8994 -110.37 -62 -151H467Z" fill="url(#paint0_linear_4591_42110)"/>
<g clip-path="url(#clip1_4591_42110)">
<path d="M336.66 223.32C338.405 223.32 339.82 221.905 339.82 220.16C339.82 218.415 338.405 217 336.66 217C334.915 217 333.5 218.415 333.5 220.16C333.5 221.905 334.915 223.32 336.66 223.32Z" fill="#0A2B14"/>
<path d="M336.66 239.8C338.405 239.8 339.82 238.386 339.82 236.64C339.82 234.895 338.405 233.48 336.66 233.48C334.915 233.48 333.5 234.895 333.5 236.64C333.5 238.386 334.915 239.8 336.66 239.8Z" fill="#0A2B14"/>
<path d="M352.72 223.32C354.465 223.32 355.88 221.905 355.88 220.16C355.88 218.415 354.465 217 352.72 217C350.975 217 349.56 218.415 349.56 220.16C349.56 221.905 350.975 223.32 352.72 223.32Z" fill="#0A2B14"/>
<path d="M352.72 239.8C354.465 239.8 355.88 238.386 355.88 236.64C355.88 234.895 354.465 233.48 352.72 233.48C350.975 233.48 349.56 234.895 349.56 236.64C349.56 238.386 350.975 239.8 352.72 239.8Z" fill="#0A2B14"/>
<path d="M304.16 223.32C305.905 223.32 307.32 221.905 307.32 220.16C307.32 218.415 305.905 217 304.16 217C302.415 217 301 218.415 301 220.16C301 221.905 302.415 223.32 304.16 223.32Z" fill="#0A2B14"/>
<path d="M304.16 239.8C305.905 239.8 307.32 238.386 307.32 236.64C307.32 234.895 305.905 233.48 304.16 233.48C302.415 233.48 301 234.895 301 236.64C301 238.386 302.415 239.8 304.16 239.8Z" fill="#0A2B14"/>
<path d="M320.21 223.32C321.955 223.32 323.37 221.905 323.37 220.16C323.37 218.415 321.955 217 320.21 217C318.465 217 317.05 218.415 317.05 220.16C317.05 221.905 318.465 223.32 320.21 223.32Z" fill="#0A2B14"/>
<path d="M320.21 239.8C321.955 239.8 323.37 238.386 323.37 236.64C323.37 234.895 321.955 233.48 320.21 233.48C318.465 233.48 317.05 234.895 317.05 236.64C317.05 238.386 318.465 239.8 320.21 239.8Z" fill="#0A2B14"/>
</g>
<path fill-rule="evenodd" clip-rule="evenodd" d="M462.908 61.9605C492.781 68.2289 498.624 107.476 514.303 133.763C524.27 150.474 532.096 166.395 536.51 185.362C543.07 213.557 563.985 246.08 545.633 268.415C527.335 290.685 490.563 282.849 462.908 274.941C441.871 268.925 433.462 245.893 416.861 231.592C397.398 214.826 365.394 210.276 358.92 185.362C351.697 157.566 365.874 128.425 384.354 106.495C404.545 82.5342 432.309 55.5395 462.908 61.9605Z" fill="#F1FB62" fill-opacity="0.8"/>
<g clip-path="url(#clip2_4591_42110)">
<path d="M328.32 36C307.74 36 291 52.74 291 73.31C291 93.88 307.74 110.63 328.32 110.63C348.9 110.63 365.63 93.89 365.63 73.31C365.63 52.73 348.89 36 328.32 36ZM328.32 103.27C311.77 103.27 298.35 89.86 298.35 73.31C298.35 56.76 311.77 43.35 328.32 43.35C344.87 43.35 358.28 56.76 358.28 73.31C358.28 89.86 344.87 103.27 328.32 103.27V103.27Z" fill="#F3C44A"/>
</g>
</g>
</g>
<defs>
<linearGradient id="paint0_linear_4591_42110" x1="603.489" y1="265" x2="-40.7065" y2="-209.177" gradientUnits="userSpaceOnUse">
<stop offset="0.143551" stop-color="#65CCB2"/>
<stop offset="0.649132" stop-color="#0D7A5F"/>
</linearGradient>
<clipPath id="clip0_4591_42110">
<rect width="445" height="262" fill="white"/>
</clipPath>
<clipPath id="clip1_4591_42110">
<rect width="54.88" height="22.8" fill="white" transform="translate(301 217)"/>
</clipPath>
<clipPath id="clip2_4591_42110">
<rect width="74.63" height="74.63" fill="white" transform="translate(291 36)"/>
</clipPath>
</defs>
</svg>
