<svg width="143" height="456" viewBox="0 0 143 456" fill="none" xmlns="http://www.w3.org/2000/svg">
<g clip-path="url(#clip0_3857_40178)">
<mask id="mask0_3857_40178" style="mask-type:alpha" maskUnits="userSpaceOnUse" x="0" y="-16" width="169" height="472">
<rect y="-16" width="169" height="472" fill="#D9D9D9"/>
</mask>
<g mask="url(#mask0_3857_40178)">
<path d="M-43.6056 296.581L-127.322 155.47C-167.316 114.108 -124.595 23.4049 -68.9699 13.7403C-13.3447 4.07564 17.52 -23.5494 91.4837 67.0343C165.447 157.618 109.644 238.427 86.9708 276.003C64.2979 313.58 28.0162 326.301 4.27344 329.651C-14.7208 332.331 -35.5601 308.721 -43.6056 296.581Z" fill="url(#paint0_linear_3857_40178)"/>
<g clip-path="url(#clip1_3857_40178)">
<path d="M55.1317 197.355L53.4731 199.013L135.99 281.53L137.649 279.872L55.1317 197.355Z" fill="#6165DD"/>
<path d="M15.3087 192.002L13.6501 193.661L141.34 321.351L142.999 319.692L15.3087 192.002Z" fill="#6165DD"/>
<path d="M-14.6383 196.529L-16.2969 198.188L136.818 351.303L138.477 349.644L-14.6383 196.529Z" fill="#6165DD"/>
<path d="M-39.2914 206.346L-40.95 208.005L126.992 375.947L128.651 374.289L-39.2914 206.346Z" fill="#6165DD"/>
<path d="M33.3416 192.8L31.6831 194.458L140.549 303.324L142.207 301.666L33.3416 192.8Z" fill="#6165DD"/>
<path d="M-0.477583 193.454L-2.13611 195.113L139.883 337.132L141.542 335.474L-0.477583 193.454Z" fill="#6165DD"/>
<path d="M-27.5112 200.883L-29.1697 202.542L132.459 364.171L134.118 362.512L-27.5112 200.883Z" fill="#6165DD"/>
<path d="M-50.0855 212.791L-51.744 214.449L120.544 386.737L122.202 385.078L-50.0855 212.791Z" fill="#6165DD"/>
<path d="M-59.9729 220.131L-61.6315 221.79L113.205 396.626L114.863 394.967L-59.9729 220.131Z" fill="#6165DD"/>
<path d="M-69.0088 228.33L-70.6674 229.989L105.015 405.671L106.673 404.012L-69.0088 228.33Z" fill="#6165DD"/>
<path d="M-77.2068 237.367L-78.8654 239.026L95.9708 413.862L97.6294 412.204L-77.2068 237.367Z" fill="#6165DD"/>
<path d="M-84.5567 247.264L-86.2152 248.922L86.0724 421.21L87.7309 419.551L-84.5567 247.264Z" fill="#6165DD"/>
<path d="M-90.9943 258.054L-92.6528 259.712L75.2894 427.655L76.948 425.996L-90.9943 258.054Z" fill="#6165DD"/>
<path d="M-96.4534 269.83L-98.1119 271.489L63.5169 433.118L65.1754 431.459L-96.4534 269.83Z" fill="#6165DD"/>
<path d="M-100.82 282.698L-102.479 284.357L50.6363 437.472L52.2948 435.813L-100.82 282.698Z" fill="#6165DD"/>
<path d="M-103.891 296.866L-105.55 298.525L36.47 440.544L38.1285 438.886L-103.891 296.866Z" fill="#6165DD"/>
<path d="M-105.342 312.651L-107.001 314.309L20.6893 441.999L22.3478 440.34L-105.342 312.651Z" fill="#6165DD"/>
<path d="M-104.551 330.677L-106.209 332.335L2.65626 441.201L4.31479 439.543L-104.551 330.677Z" fill="#6165DD"/>
<path d="M87.951 212.935L86.2925 214.594L120.408 248.71L122.067 247.051L87.951 212.935Z" fill="#6165DD"/>
</g>
</g>
</g>
<defs>
<linearGradient id="paint0_linear_3857_40178" x1="-27.6332" y1="351.596" x2="208.826" y2="118.944" gradientUnits="userSpaceOnUse">
<stop stop-color="#65CCB2"/>
<stop offset="0.648111" stop-color="#0D7A5F"/>
</linearGradient>
<clipPath id="clip0_3857_40178">
<rect width="143" height="456" fill="white"/>
</clipPath>
<clipPath id="clip1_3857_40178">
<rect width="250" height="250" fill="white" transform="translate(-107.001 192)"/>
</clipPath>
</defs>
</svg>
