<?xml version="1.0" encoding="UTF-8"?>
<svg width="32px" height="32px" viewBox="0 0 32 32" version="1.1" xmlns="http://www.w3.org/2000/svg" xmlns:xlink="http://www.w3.org/1999/xlink">
    <!-- Generator: Sketch 53.1 (72631) - https://sketchapp.com -->
    <title>tw</title>
    <desc>Created with Sketch.</desc>
    <g id="Page-1" stroke="none" stroke-width="1" fill="none" fill-rule="evenodd">
        <g id="tw">
            <g id="twitter-white-390fd7fd842078ee97b8aec16e969516">
                <path d="M31,5.886 C29.896,6.375 28.71,6.706 27.465,6.855 C28.735,6.093 29.711,4.887 30.171,3.449 C28.982,4.154 27.665,4.667 26.263,4.942 C25.14,3.747 23.54,3 21.77,3 C18.371,3 15.616,5.755 15.616,9.155 C15.616,9.638 15.671,10.107 15.775,10.558 C10.659,10.301 6.124,7.85 3.088,4.126 C2.558,5.035 2.255,6.093 2.255,7.221 C2.255,9.356 3.342,11.24 4.993,12.343 C3.985,12.312 3.035,12.035 2.205,11.574 C2.205,11.599 2.205,11.625 2.205,11.651 C2.205,14.633 4.327,17.121 7.142,17.686 C6.626,17.827 6.082,17.902 5.521,17.902 C5.124,17.902 4.739,17.863 4.363,17.791 C5.146,20.236 7.418,22.016 10.112,22.066 C8.005,23.717 5.352,24.701 2.468,24.701 C1.971,24.701 1.481,24.672 1,24.615 C3.724,26.361 6.96,27.38 10.435,27.38 C21.756,27.38 27.947,18.001 27.947,9.868 C27.947,9.602 27.94,9.336 27.929,9.072 C29.131,8.204 30.175,7.12 31,5.886 Z" id="Path" fill="#FFFFFF" fill-rule="nonzero"></path>
                <rect id="Rectangle" x="0" y="0" width="32" height="32"></rect>
            </g>
        </g>
    </g>
</svg>